<svg xmlns="http://www.w3.org/2000/svg" width="40" height="40" viewBox="0 0 40 40" fill="none">
  <mask id="mask0_47_1563" style="mask-type:alpha" maskUnits="userSpaceOnUse" x="8" y="8" width="24" height="24">
    <rect x="8" y="8" width="24" height="24" fill="#D9D9D9"/>
  </mask>
  <g mask="url(#mask0_47_1563)">
    <path d="M22.25 23.6538H23.75V20.75H26.6538V19.25H23.75V16.3462H22.25V19.25H19.3463V20.75H22.25V23.6538ZM14 27.9615C12.3372 27.3282 11.0048 26.2868 10.003 24.8375C9.001 23.3882 8.5 21.7757 8.5 20C8.5 18.2243 9.001 16.6118 10.003 15.1625C11.0048 13.7132 12.3372 12.6718 14 12.0385V13.7C12.7667 14.2833 11.7917 15.1417 11.075 16.275C10.3583 17.4083 10 18.65 10 20C10 21.35 10.3583 22.5917 11.075 23.725C11.7917 24.8583 12.7667 25.7167 14 26.3V27.9615ZM23.0005 28.5C21.8207 28.5 20.7154 28.2769 19.6848 27.8307C18.6539 27.3846 17.7552 26.7782 16.9885 26.0115C16.2218 25.2448 15.6154 24.3463 15.1693 23.316C14.7231 22.2855 14.5 21.1803 14.5 20.0005C14.5 18.8207 14.7231 17.7154 15.1693 16.6848C15.6154 15.6539 16.2218 14.7552 16.9885 13.9885C17.7552 13.2218 18.6537 12.6154 19.684 12.1693C20.7145 11.7231 21.8197 11.5 22.9995 11.5C24.1793 11.5 25.2846 11.7231 26.3153 12.1693C27.3461 12.6154 28.2448 13.2218 29.0115 13.9885C29.7782 14.7552 30.3846 15.6537 30.8307 16.684C31.2769 17.7145 31.5 18.8197 31.5 19.9995C31.5 21.1793 31.2769 22.2846 30.8307 23.3152C30.3846 24.3461 29.7782 25.2448 29.0115 26.0115C28.2448 26.7782 27.3463 27.3846 26.316 27.8307C25.2855 28.2769 24.1803 28.5 23.0005 28.5ZM23 27C24.95 27 26.6042 26.3208 27.9625 24.9625C29.3208 23.6042 30 21.95 30 20C30 18.05 29.3208 16.3958 27.9625 15.0375C26.6042 13.6792 24.95 13 23 13C21.05 13 19.3958 13.6792 18.0375 15.0375C16.6792 16.3958 16 18.05 16 20C16 21.95 16.6792 23.6042 18.0375 24.9625C19.3958 26.3208 21.05 27 23 27Z" fill="#8A8A99"/>
  </g>
</svg>