<svg xmlns="http://www.w3.org/2000/svg" width="40" height="40" viewBox="0 0 40 40" fill="none">
  <mask id="mask0_47_1563" style="mask-type:alpha" maskUnits="userSpaceOnUse" x="8" y="8" width="24" height="24">
    <rect x="8" y="8" width="24" height="24" fill="#D9D9D9" />
  </mask>
  <g mask="url(#mask0_47_1563)">
    <path
      d="M21 28.5192V26.6152H22.9037V28.5192H21ZM19.0962 26.6152V21.9037H21V26.6152H19.0962ZM26.6152 23.423V20H28.5192V23.423H26.6152ZM24.7115 20V18.0962H26.6152V20H24.7115ZM13.3847 21.9037V20H15.2885V21.9037H13.3847ZM11.4807 20V18.0962H13.3847V20H11.4807ZM20 13.3847V11.4807H21.9037V13.3847H20ZM12.673 16H16V12.673H12.673V16ZM11.4807 17.1922V11.4807H17.1922V17.1922H11.4807ZM12.673 27.327H16.077V24H12.673V27.327ZM11.4807 28.5192V22.8077H17.2692V28.5192H11.4807ZM24 16H27.327V12.673H24V16ZM22.8077 17.1922V11.4807H28.5192V17.1922H22.8077ZM24.7115 28.5192V25.3267H22.8077V23.423H26.6152V26.6152H28.5192V28.5192H24.7115ZM21 21.9037V20H24.7115V21.9037H21ZM17.1922 21.9037V20H15.2885V18.0962H21V20H19.0962V21.9037H17.1922ZM18.0962 17.1922V13.3847H20V15.2885H21.9037V17.1922H18.0962ZM13.6442 15.0287V13.6442H15.0287V15.0287H13.6442ZM13.7115 26.2885V24.9037H15.0962V26.2885H13.7115ZM24.9712 15.0287V13.6442H26.3557V15.0287H24.9712Z"
      fill="#8A8A99" />
  </g>
</svg>