<svg xmlns="http://www.w3.org/2000/svg" width="13" height="13" viewBox="0 0 13 13" fill="none">
  <mask id="mask0_45_1419" style="mask-type:alpha" maskUnits="userSpaceOnUse" x="0" y="0" width="13" height="13">
    <rect x="0.538086" y="0.0482178" width="12.264" height="12.264" fill="#D9D9D9" />
  </mask>
  <g mask="url(#mask0_45_1419)">
    <path
      d="M4.2724 10.5236C4.01835 10.5236 3.80088 10.4331 3.61998 10.2522C3.43909 10.0713 3.34864 9.85387 3.34864 9.59982V3.11411H3.2209C3.11231 3.11411 3.02131 3.07736 2.94789 3.00386C2.8744 2.93036 2.83765 2.83932 2.83765 2.73073C2.83765 2.62206 2.8744 2.53106 2.94789 2.45773C3.02131 2.38431 3.11231 2.34761 3.2209 2.34761H5.13714C5.13714 2.2225 5.18121 2.11587 5.26936 2.02772C5.35742 1.93966 5.46401 1.89563 5.58912 1.89563H7.75115C7.87626 1.89563 7.98285 1.93966 8.07091 2.02772C8.15906 2.11587 8.20313 2.2225 8.20313 2.34761H10.1194C10.228 2.34761 10.319 2.38436 10.3924 2.45786C10.4659 2.53135 10.5026 2.6224 10.5026 2.73098C10.5026 2.83966 10.4659 2.93066 10.3924 3.00399C10.319 3.0774 10.228 3.11411 10.1194 3.11411H9.99162V9.59982C9.99162 9.85387 9.90118 10.0713 9.72028 10.2522C9.53939 10.4331 9.32192 10.5236 9.06787 10.5236H4.2724ZM9.22513 3.11411H4.11514V9.59982C4.11514 9.64573 4.12988 9.68341 4.15934 9.71288C4.18881 9.74235 4.2265 9.75708 4.2724 9.75708H9.06787C9.11377 9.75708 9.15146 9.74235 9.18092 9.71288C9.21039 9.68341 9.22513 9.64573 9.22513 9.59982V3.11411ZM5.72696 8.73509C5.83555 8.73509 5.92655 8.69838 5.99996 8.62497C6.07329 8.55147 6.10995 8.46042 6.10995 8.35184V4.51935C6.10995 4.41076 6.0732 4.31972 5.9997 4.24622C5.92629 4.17281 5.83525 4.1361 5.72658 4.1361C5.61799 4.1361 5.52699 4.17281 5.45357 4.24622C5.38025 4.31972 5.34358 4.41076 5.34358 4.51935V8.35184C5.34358 8.46042 5.38029 8.55147 5.4537 8.62497C5.5272 8.69838 5.61829 8.73509 5.72696 8.73509ZM7.61369 8.73509C7.72228 8.73509 7.81328 8.69838 7.88669 8.62497C7.96002 8.55147 7.99669 8.46042 7.99669 8.35184V4.51935C7.99669 4.41076 7.95998 4.31972 7.88657 4.24622C7.81307 4.17281 7.72198 4.1361 7.61331 4.1361C7.50472 4.1361 7.41372 4.17281 7.34031 4.24622C7.26698 4.31972 7.23032 4.41076 7.23032 4.51935V8.35184C7.23032 8.46042 7.26706 8.55147 7.34056 8.62497C7.41398 8.69838 7.50502 8.73509 7.61369 8.73509Z"
      fill="#FF0000" />
  </g>
</svg>